<?xml version="1.0" encoding="UTF-8"?>
<svg width="808px" height="545px" viewBox="0 0 808 545" version="1.1" xmlns="http://www.w3.org/2000/svg" xmlns:xlink="http://www.w3.org/1999/xlink">
    <!-- Generator: Sketch 63.1 (92452) - https://sketch.com -->
    <title>Items</title>
    <desc>Created with Sketch.</desc>
    <g id="Page-1" stroke="none" stroke-width="1" fill="none" fill-rule="evenodd">
        <g id="Home/SearchWhat" transform="translate(-839.000000, -275.000000)">
            <g id="Items" transform="translate(839.000000, 257.000000)">
                <g>
                    <g id="Mannequin" transform="translate(430.000000, 122.000000)" fill="#517B88">
                        <g id="Group">
                            <rect id="Rectangle" x="54.6938776" y="252.468401" width="10.6122449" height="177.875465"></rect>
                            <rect id="Rectangle" x="24.4897959" y="430.343866" width="71.0204082" height="10.6561338"></rect>
                            <path d="M18.29633,257.386617 C11.8408921,248.117778 7.8247713,236.217831 6.24796746,221.686779 C3.9930708,200.906754 9.71535654,187.459774 24.411883,144.93982 C30.9485408,126.027978 18.957385,110.484635 11.2400449,96.9176703 C8.08334025,91.3682324 11.2400449,82.0210984 11.2400449,69.6026133 C11.2400449,65.0268838 2.50866376,63.1232568 1.2932333,56.139036 C0.0346686036,48.9069532 -1.58140239,33.4387346 3.37333176,30.0918747 C6.67648787,27.8606348 25.5520439,26.5735043 60,26.2304833 L61.028767,26.2410571 C94.8239099,26.5993414 113.356544,27.8829472 116.626668,30.0918747 C121.581402,33.4387346 119.965331,48.9069532 118.706767,56.139036 C117.491336,63.1232568 108.759955,65.0268838 108.759955,69.6026133 C108.759955,82.0210984 111.91666,91.3682324 108.759955,96.9176703 C101.042615,110.484635 89.0514592,126.027978 95.588117,144.93982 C110.284643,187.459774 116.006929,200.906754 113.752033,221.686779 C112.175229,236.217831 108.159108,248.117778 101.70367,257.386617 L101.70367,257.386617 L18.29633,257.386617 Z" id="Combined-Shape"></path>
                            <path d="M46.7963745,0 L73.6042522,0 C74.5255419,8.17784577 76.1960099,14.0550494 78.6156562,17.6316109 C81.0353025,21.2081723 87.2110361,25.4406341 97.1428571,30.3289963 L21.2244898,30.3289963 C32.0844866,26.0497045 38.8594415,21.9511914 41.5493544,18.0334572 C44.2392674,14.1157231 45.9882741,8.10457063 46.7963745,0 Z" id="Rectangle"></path>
                        </g>
                    </g>
                    <g id="Lamp" transform="translate(565.000000, 72.000000) rotate(-14.000000) translate(-565.000000, -72.000000) translate(515.000000, 11.000000)">
                        <g id="Group">
                            <polygon id="Rectangle" fill="#FFFFFF" points="87.4307162 55.2496791 93.0018768 57.1328409 61.0022858 109.211218 53.9393768 109.211218"></polygon>
                            <polygon id="Rectangle" fill="#FFFFFF" transform="translate(63.694292, 26.066658) rotate(-58.000000) translate(-63.694292, -26.066658) " points="61.7194955 0.0305957592 65.6286268 0.0287952904 65.90417 52.1045205 61.4844137 51.3572382"></polygon>
                            <polygon id="Rectangle" fill="#FFFFFF" transform="translate(22.481430, 29.974512) rotate(-58.000000) translate(-22.481430, -29.974512) " points="20.485706 4.8298736 24.3948374 4.82807313 24.6266021 55.1209517 20.3362577 55.1156387"></polygon>
                            <ellipse id="Oval" stroke="#FFFFFF" stroke-width="6" cx="92.6112518" cy="46.2560893" rx="6.640625" ry="6.6474359"></ellipse>
                            <path d="M36.9381536,2.39951493 C39.744231,2.40078515 42.0186888,4.67524343 42.0199584,7.48132085 L42.0222589,12.5657178 L42.0222589,12.5657178 L31.8632457,12.5611191 C31.8624789,10.8663201 31.8617121,9.17152114 31.8609452,7.47672217 C31.8596771,4.67392617 34.1307642,2.40078306 36.9335602,2.39951493 C36.9350913,2.39951423 36.9366224,2.39951423 36.9381536,2.39951493 Z" id="Rectangle" fill="#FFFFFF" transform="translate(36.940453, 7.481467) rotate(31.000000) translate(-36.940453, -7.481467) "></path>
                            <path d="M22.9389649,11.5238504 L34.8009218,11.423521 C36.7860518,11.4067325 38.7520546,11.8123187 40.5684647,12.6133665 C43.9396248,14.1000683 46.4402612,16.1477819 48.0703738,18.7565074 C50.2007724,22.1658578 51.381592,25.3724393 51.6128327,28.3762518 L6.28728199,28.3553663 C6.30883612,28.2360068 5.58828986,24.2992959 9.21889757,18.9299971 C11.245899,15.9322684 14.3402241,13.7173501 18.5018726,12.2852422 C19.9301459,11.7937474 21.428545,11.5366256 22.9389649,11.5238504 Z" id="Rectangle" fill="#FFFFFF" transform="translate(28.927727, 19.889662) rotate(32.000000) translate(-28.927727, -19.889662) "></path>
                            <path d="M19.1749531,37.2541214 C22.4119286,37.255612 25.0351666,35.4133809 25.0336757,32.1749504 L13.3115499,32.169549 C13.3130415,35.4079795 15.9379776,37.2526289 19.1749531,37.2541214 Z" id="Oval" fill="#FFFFFF" transform="translate(19.172613, 34.711835) rotate(32.000000) translate(-19.172613, -34.711835) "></path>
                            <path d="M24.8456268,109.211218 L68.9706268,109.211218 C71.4559082,109.211218 73.4706268,111.225936 73.4706268,113.711218 L73.4706268,116.249679 L73.4706268,116.249679 L20.3456268,116.249679 C20.3456268,115.403525 20.3456268,114.557371 20.3456268,113.711218 C20.3456268,111.225936 22.3603454,109.211218 24.8456268,109.211218 Z" id="Rectangle" fill="#FFFFFF"></path>
                            <rect id="Rectangle" fill="#FFFFFF" x="18.0018768" y="117.03173" width="57.8125" height="4.69230769"></rect>
                        </g>
                    </g>
                    <g id="Office-Chair" transform="translate(512.000000, 341.000000)" fill="#632A44">
                        <g id="Group">
                            <path d="M0,106.654804 C7.17408598,106.654804 10.761129,106.654804 10.761129,106.654804 C10.761129,106.654804 10.761129,130.032792 10.761129,132.660303 C10.761129,135.287814 12.1027762,137.272261 14.2580592,138.494558 C15.6949144,139.309423 17.2687587,139.727018 18.9795918,139.747342 L18.9795918,144.576512 C14.8114013,144.279274 12.0719137,143.587147 10.761129,142.500131 C8.79495192,140.869607 6.27674292,137.8977 6.27674292,133.941191 C6.27674292,131.303518 6.27674292,123.995296 6.27674292,112.016527 L0,112.016527 L0,106.654804 Z" id="Path"></path>
                            <path d="M136.020408,106.654804 C143.194494,106.654804 146.781537,106.654804 146.781537,106.654804 C146.781537,106.654804 146.781537,130.032792 146.781537,132.660303 C146.781537,135.287814 148.123184,137.272261 150.278467,138.494558 C151.715323,139.309423 153.289167,139.727018 155,139.747342 L155,144.576512 C150.831809,144.279274 148.092322,143.587147 146.781537,142.500131 C144.81536,140.869607 142.297151,137.8977 142.297151,133.941191 C142.297151,131.303518 142.297151,123.995296 142.297151,112.016527 L136.020408,112.016527 L136.020408,106.654804 Z" id="Path" transform="translate(145.510204, 125.615658) scale(-1, 1) translate(-145.510204, -125.615658) "></path>
                            <rect id="Rectangle" x="70.3826531" y="119.295374" width="15.8163265" height="10.2704626"></rect>
                            <rect id="Rectangle" x="67.2193878" y="150.896797" width="21.3520408" height="17.3807829"></rect>
                            <rect id="Rectangle" x="71.9642857" y="170.647687" width="11.0714286" height="26.0711744"></rect>
                            <path d="M29.8629474,132.725979 L126.233856,132.725979 C127.872572,132.725979 129.345536,133.725506 129.950909,135.248304 L133.052,143.049015 C133.868097,145.101887 132.865494,147.427645 130.812623,148.243743 C130.342395,148.430676 129.840969,148.52669 129.334947,148.52669 L27.5204726,148.52669 C25.3113336,148.52669 23.5204726,146.735829 23.5204726,144.52669 C23.5204726,144.137036 23.5774075,143.749472 23.6894732,143.37628 L26.031948,135.575568 C26.5398655,133.884144 28.096908,132.725979 29.8629474,132.725979 Z" id="Rectangle"></path>
                            <path d="M113.781878,0 C116.943501,2.08375454e-15 119.562642,2.45336281 119.769075,5.60823924 L126.3653,106.416948 C126.460919,107.878518 125.487154,109.195482 124.06173,109.532377 C103.208578,114.46097 87.7158446,116.925267 77.5835309,116.925267 C67.4371295,116.925267 51.3740047,114.454113 29.3941567,109.511805 C27.9514087,109.187397 26.9602494,107.86005 27.058985,106.384579 L33.8033343,5.59938763 C34.0142036,2.44823056 36.6317405,5.80152786e-16 39.7899452,0 L113.781878,0 Z M52.1938776,82.1637011 C49.136587,82.1637011 46.6581633,84.6396779 46.6581633,87.6939502 C46.6581633,90.7482224 49.136587,93.2241993 52.1938776,93.2241993 C55.2511681,93.2241993 57.7295918,90.7482224 57.7295918,87.6939502 C57.7295918,84.6396779 55.2511681,82.1637011 52.1938776,82.1637011 Z M102.015306,82.1637011 C98.9580155,82.1637011 96.4795918,84.6396779 96.4795918,87.6939502 C96.4795918,90.7482224 98.9580155,93.2241993 102.015306,93.2241993 C105.072597,93.2241993 107.55102,90.7482224 107.55102,87.6939502 C107.55102,84.6396779 105.072597,82.1637011 102.015306,82.1637011 Z M56.1479592,48.1921708 C53.0906686,48.1921708 50.6122449,50.6681477 50.6122449,53.7224199 C50.6122449,56.7766922 53.0906686,59.252669 56.1479592,59.252669 C59.2052498,59.252669 61.6836735,56.7766922 61.6836735,53.7224199 C61.6836735,50.6681477 59.2052498,48.1921708 56.1479592,48.1921708 Z M98.8520408,48.1921708 C95.7947502,48.1921708 93.3163265,50.6681477 93.3163265,53.7224199 C93.3163265,56.7766922 95.7947502,59.252669 98.8520408,59.252669 C101.909331,59.252669 104.387755,56.7766922 104.387755,53.7224199 C104.387755,50.6681477 101.909331,48.1921708 98.8520408,48.1921708 Z M60.8928571,14.2206406 C57.8355666,14.2206406 55.3571429,16.6966174 55.3571429,19.7508897 C55.3571429,22.8051619 57.8355666,25.2811388 60.8928571,25.2811388 C63.9501477,25.2811388 66.4285714,22.8051619 66.4285714,19.7508897 C66.4285714,16.6966174 63.9501477,14.2206406 60.8928571,14.2206406 Z M93.3163265,14.2206406 C90.259036,14.2206406 87.7806122,16.6966174 87.7806122,19.7508897 C87.7806122,22.8051619 90.259036,25.2811388 93.3163265,25.2811388 C96.3736171,25.2811388 98.8520408,22.8051619 98.8520408,19.7508897 C98.8520408,16.6966174 96.3736171,14.2206406 93.3163265,14.2206406 Z" id="Combined-Shape"></path>
                            <path d="M76.4436577,207.612261 C76.4078348,207.612261 76.3721688,207.612175 76.3366594,207.612003 C64.2029407,207.607736 56.9730671,207.698592 44.1924747,215.507201 C44.1924747,215.507201 41.5170704,217.392288 36.1662617,221.162461 C34.2924348,222.482741 31.7030973,222.034017 30.3828066,220.160198 C29.3671938,218.718793 29.3731804,216.793018 30.3977351,215.357955 C40.127259,201.730099 62.7935634,200.007214 76.0743896,199.886509 C76.1961859,199.881203 76.3193538,199.879004 76.4436577,199.879004 C76.6606182,199.879004 76.8807441,199.879355 77.1039163,199.880113 C77.3284395,199.879355 77.5485655,199.879004 77.765526,199.879004 C77.8895977,199.879004 78.0125377,199.881195 78.1342978,199.885505 C91.4144882,200.007128 114.081682,201.729758 123.811449,215.357955 C124.836003,216.793018 124.84199,218.718793 123.826377,220.160198 C122.506086,222.034017 119.916749,222.482741 118.042922,221.162461 C112.692113,217.392288 110.016709,215.507201 110.016709,215.507201 C97.2357631,207.698376 90.005843,207.607731 77.87358,207.611804 C77.8370148,207.612175 77.8013489,207.612261 77.765526,207.612261 Z" id="Combined-Shape"></path>
                        </g>
                    </g>
                    <rect id="Rectangle" fill="#FFECDE" x="636" y="289" width="164" height="244"></rect>
                    <g id="File" transform="translate(628.000000, 274.000000)">
                        <g id="Group-3">
                            <g id="Group-2">
                                <rect id="Rectangle" fill="#767376" x="9.68609865" y="273.662011" width="23.4080717" height="15.3379888" rx="3"></rect>
                                <rect id="Rectangle" fill="#767376" x="146.90583" y="273.662011" width="23.4080717" height="15.3379888" rx="3"></rect>
                                <path d="M180,0 L180,271.240223 L0,271.240223 L0,0 L180,0 Z M170.313901,205.851955 L9.68609865,205.851955 L9.68609865,246.215084 L170.313901,246.215084 L170.313901,205.851955 Z M170.313901,157.416201 L9.68609865,157.416201 L9.68609865,197.77933 L170.313901,197.77933 L170.313901,157.416201 Z M170.313901,108.980447 L9.68609865,108.980447 L9.68609865,149.343575 L170.313901,149.343575 L170.313901,108.980447 Z M170.313901,60.5446927 L9.68609865,60.5446927 L9.68609865,100.907821 L170.313901,100.907821 L170.313901,60.5446927 Z M170.313901,12.1089385 L9.68609865,12.1089385 L9.68609865,52.472067 L170.313901,52.472067 L170.313901,12.1089385 Z" id="Combined-Shape" fill="#767376"></path>
                                <path d="M165.470852,211.502793 L165.470852,241.371508 L14.529148,241.371508 L14.529148,211.502793 L165.470852,211.502793 Z M114.654709,238.949721 C116.863848,238.949721 118.654709,237.15886 118.654709,234.949721 L118.654709,234.949721 L118.654709,227.611732 C118.654709,227.424633 118.641863,227.240535 118.617005,227.06027 C118.642257,226.856221 118.654709,226.64814 118.654709,226.437151 C118.654709,223.539199 116.305709,221.189944 113.408072,221.189944 C110.510434,221.189944 108.161435,223.539199 108.161435,226.437151 C108.161435,226.648244 108.173899,226.856426 108.19813,227.061001 C108.174281,227.240535 108.161435,227.424633 108.161435,227.611732 L108.161435,227.611732 L108.161148,230.070793 L71.838148,230.070793 L71.838565,227.611732 C71.838565,227.424633 71.8257193,227.240535 71.8008618,227.06027 C71.8261012,226.856426 71.838565,226.648244 71.838565,226.437151 C71.838565,223.539199 69.4895657,221.189944 66.5919283,221.189944 C63.6942908,221.189944 61.3452915,223.539199 61.3452915,226.437151 C61.3452915,226.648483 61.3577834,226.856897 61.3820692,227.061694 C61.3580901,227.24121 61.3452915,227.424976 61.3452915,227.611732 L61.3452915,227.611732 L61.3452915,234.949721 C61.3452915,237.15886 63.1361525,238.949721 65.3452915,238.949721 L65.3452915,238.949721 Z" id="Combined-Shape" fill="#767376"></path>
                                <polyline id="Path-2" stroke="#767376" stroke-width="5" points="66.5919283 226.437151 66.5919283 234.509777 113.408072 234.509777 113.408072 226.437151"></polyline>
                                <path d="M165.470852,163.067039 L165.470852,192.935754 L14.529148,192.935754 L14.529148,163.067039 L165.470852,163.067039 Z M114.654709,190.513966 C116.863848,190.513966 118.654709,188.723105 118.654709,186.513966 L118.654709,186.513966 L118.654709,179.175978 C118.654709,178.988879 118.641863,178.80478 118.617005,178.624516 C118.642257,178.420467 118.654709,178.212386 118.654709,178.001397 C118.654709,175.103444 116.305709,172.75419 113.408072,172.75419 C110.510434,172.75419 108.161435,175.103444 108.161435,178.001397 C108.161435,178.21249 108.173899,178.420672 108.19813,178.625247 C108.174281,178.80478 108.161435,178.988879 108.161435,179.175978 L108.161435,179.175978 L108.161148,181.635039 L71.838148,181.635039 L71.838565,179.175978 C71.838565,178.988879 71.8257193,178.80478 71.8008618,178.624516 C71.8261012,178.420672 71.838565,178.21249 71.838565,178.001397 C71.838565,175.103444 69.4895657,172.75419 66.5919283,172.75419 C63.6942908,172.75419 61.3452915,175.103444 61.3452915,178.001397 C61.3452915,178.212729 61.3577834,178.421143 61.3820692,178.62594 C61.3580901,178.805456 61.3452915,178.989222 61.3452915,179.175978 L61.3452915,179.175978 L61.3452915,186.513966 C61.3452915,188.723105 63.1361525,190.513966 65.3452915,190.513966 L65.3452915,190.513966 Z" id="Combined-Shape" fill="#767376"></path>
                                <polyline id="Path-2" stroke="#767376" stroke-width="5" points="66.5919283 178.001397 66.5919283 186.074022 113.408072 186.074022 113.408072 178.001397"></polyline>
                                <path d="M165.470852,113.824022 L165.470852,143.692737 L14.529148,143.692737 L14.529148,113.824022 L165.470852,113.824022 Z M114.654709,141.27095 C116.863848,141.27095 118.654709,139.480089 118.654709,137.27095 L118.654709,137.27095 L118.654709,129.932961 C118.654709,129.745862 118.641863,129.561764 118.617005,129.381499 C118.642257,129.17745 118.654709,128.969369 118.654709,128.75838 C118.654709,125.860428 116.305709,123.511173 113.408072,123.511173 C110.510434,123.511173 108.161435,125.860428 108.161435,128.75838 C108.161435,128.969473 108.173899,129.177655 108.19813,129.38223 C108.174281,129.561764 108.161435,129.745862 108.161435,129.932961 L108.161435,129.932961 L108.161148,132.392022 L71.838148,132.392022 L71.838565,129.932961 C71.838565,129.745862 71.8257193,129.561764 71.8008618,129.381499 C71.8261012,129.177655 71.838565,128.969473 71.838565,128.75838 C71.838565,125.860428 69.4895657,123.511173 66.5919283,123.511173 C63.6942908,123.511173 61.3452915,125.860428 61.3452915,128.75838 C61.3452915,128.969712 61.3577834,129.178126 61.3820692,129.382923 C61.3580901,129.562439 61.3452915,129.746205 61.3452915,129.932961 L61.3452915,129.932961 L61.3452915,137.27095 C61.3452915,139.480089 63.1361525,141.27095 65.3452915,141.27095 L65.3452915,141.27095 Z" id="Combined-Shape" fill="#767376"></path>
                                <polyline id="Path-2" stroke="#767376" stroke-width="5" points="66.5919283 128.75838 66.5919283 136.831006 113.408072 136.831006 113.408072 128.75838"></polyline>
                                <path d="M165.470852,65.3882682 L165.470852,95.2569832 L14.529148,95.2569832 L14.529148,65.3882682 L165.470852,65.3882682 Z M114.654709,92.8351955 C116.863848,92.8351955 118.654709,91.0443345 118.654709,88.8351955 L118.654709,88.8351955 L118.654709,81.4972067 C118.654709,81.3101079 118.641863,81.1260094 118.617005,80.945745 C118.642257,80.741696 118.654709,80.5336151 118.654709,80.3226257 C118.654709,77.4246735 116.305709,75.075419 113.408072,75.075419 C110.510434,75.075419 108.161435,77.4246735 108.161435,80.3226257 C108.161435,80.5337191 108.173899,80.7419011 108.19813,80.9464758 C108.174281,81.1260094 108.161435,81.3101079 108.161435,81.4972067 L108.161435,81.4972067 L108.161148,83.9562682 L71.838148,83.9562682 L71.838565,81.4972067 C71.838565,81.3101079 71.8257193,81.1260094 71.8008618,80.945745 C71.8261012,80.7419011 71.838565,80.5337191 71.838565,80.3226257 C71.838565,77.4246735 69.4895657,75.075419 66.5919283,75.075419 C63.6942908,75.075419 61.3452915,77.4246735 61.3452915,80.3226257 C61.3452915,80.5339576 61.3577834,80.7423716 61.3820692,80.9471692 C61.3580901,81.126685 61.3452915,81.3104512 61.3452915,81.4972067 L61.3452915,81.4972067 L61.3452915,88.8351955 C61.3452915,91.0443345 63.1361525,92.8351955 65.3452915,92.8351955 L65.3452915,92.8351955 Z" id="Combined-Shape" fill="#767376"></path>
                                <polyline id="Path-2" stroke="#767376" stroke-width="5" points="66.5919283 80.3226257 66.5919283 88.3952514 113.408072 88.3952514 113.408072 80.3226257"></polyline>
                                <path d="M165.470852,16.952514 L165.470852,46.8212291 L14.529148,46.8212291 L14.529148,16.952514 L165.470852,16.952514 Z M114.654709,44.3994413 C116.863848,44.3994413 118.654709,42.6085803 118.654709,40.3994413 L118.654709,40.3994413 L118.654709,33.0614525 C118.654709,32.8743537 118.641863,32.6902552 118.617005,32.5099908 C118.642257,32.3059418 118.654709,32.0978609 118.654709,31.8868715 C118.654709,28.9889193 116.305709,26.6396648 113.408072,26.6396648 C110.510434,26.6396648 108.161435,28.9889193 108.161435,31.8868715 C108.161435,32.0979649 108.173899,32.3061469 108.19813,32.5107216 C108.174281,32.6902552 108.161435,32.8743537 108.161435,33.0614525 L108.161435,33.0614525 L108.161148,35.520514 L71.838148,35.520514 L71.838565,33.0614525 C71.838565,32.8743537 71.8257193,32.6902552 71.8008618,32.5099908 C71.8261012,32.3061469 71.838565,32.0979649 71.838565,31.8868715 C71.838565,28.9889193 69.4895657,26.6396648 66.5919283,26.6396648 C63.6942908,26.6396648 61.3452915,28.9889193 61.3452915,31.8868715 C61.3452915,32.0982034 61.3577834,32.3066174 61.3820692,32.5114151 C61.3580901,32.6909308 61.3452915,32.874697 61.3452915,33.0614525 L61.3452915,33.0614525 L61.3452915,40.3994413 C61.3452915,42.6085803 63.1361525,44.3994413 65.3452915,44.3994413 L65.3452915,44.3994413 Z" id="Combined-Shape" fill="#767376"></path>
                                <polyline id="Path-2" stroke="#767376" stroke-width="5" points="66.5919283 31.8868715 66.5919283 39.9594972 113.408072 39.9594972 113.408072 31.8868715"></polyline>
                            </g>
                            <g id="Group" transform="translate(14.529148, 211.502793)"></g>
                            <g id="Group-Copy" transform="translate(14.529148, 163.067039)"></g>
                            <g id="Group-Copy-3" transform="translate(14.529148, 113.824022)"></g>
                            <g id="Group-Copy-2" transform="translate(14.529148, 65.388268)"></g>
                            <g id="Group-Copy-4" transform="translate(14.529148, 16.952514)"></g>
                        </g>
                    </g>
                    <g id="Desk" transform="translate(0.000000, 407.000000)" fill="#CCCCCC">
                        <g id="Group">
                            <ellipse id="Oval" cx="62.4708625" cy="40.56" rx="3.9044289" ry="3.9"></ellipse>
                            <ellipse id="Oval" cx="62.4708625" cy="73.32" rx="3.9044289" ry="3.9"></ellipse>
                            <ellipse id="Oval" cx="62.4708625" cy="104.52" rx="3.9044289" ry="3.9"></ellipse>
                            <ellipse id="Oval" cx="62.4708625" cy="137.28" rx="3.9044289" ry="3.9"></ellipse>
                            <rect id="Rectangle" x="317.820513" y="14.82" width="10.1515152" height="141.18"></rect>
                            <path d="M114.79021,14.82 L114.79021,156 L9.37062937,156 L9.37062937,14.82 L114.79021,14.82 Z M110.104895,122.46 L14.0559441,122.46 L14.0559441,150.54 L110.104895,150.54 L110.104895,122.46 Z M110.104895,90.48 L14.0559441,90.48 L14.0559441,118.56 L110.104895,118.56 L110.104895,90.48 Z M110.104895,58.5 L14.0559441,58.5 L14.0559441,86.58 L110.104895,86.58 L110.104895,58.5 Z M110.104895,26.52 L14.0559441,26.52 L14.0559441,54.6 L110.104895,54.6 L110.104895,26.52 Z" id="Combined-Shape"></path>
                            <rect id="Rectangle" x="118.694639" y="14.82" width="194.440559" height="30.42"></rect>
                            <rect id="Rectangle" x="0" y="0" width="335" height="12.48"></rect>
                        </g>
                    </g>
                    <g id="Big-Chair" transform="translate(644.500000, 206.500000) rotate(-14.000000) translate(-644.500000, -206.500000) translate(539.000000, 120.000000)" fill="#C9A175">
                        <g id="Group">
                            <path d="M173.432,0 C183.92541,-1.92760819e-15 192.432,8.50658975 192.432,19 L192.432125,36.7806639 C186.115259,38.456649 181.46,44.21358 181.46,51.0578049 L181.46,51.0578049 L181.46,117.302439 L192.230436,117.303407 C192.071797,117.49278 191.833559,117.613203 191.567195,117.613201 L17.7448052,117.613201 C17.4784409,117.613203 17.2402029,117.49278 17.0815644,117.303407 L28.696,117.302439 L28.696,51.0578049 C28.696,43.912327 23.6219138,37.9519655 16.8803504,36.5833295 L16.88,19 L16.88,19 C16.88,8.50658975 25.3865898,1.92760819e-15 35.88,0 L173.432,0 Z M161.626146,82.702439 L45.9978537,82.702439 C45.298742,82.702439 44.732,83.269181 44.732,83.9682927 C44.732,84.6674044 45.298742,85.2341463 45.9978537,85.2341463 L45.9978537,85.2341463 L161.626146,85.2341463 C162.325258,85.2341463 162.892,84.6674044 162.892,83.9682927 C162.892,83.269181 162.325258,82.702439 161.626146,82.702439 L161.626146,82.702439 Z M161.626146,62.4487805 L45.9978537,62.4487805 C45.298742,62.4487805 44.732,63.0155225 44.732,63.7146341 C44.732,64.4137458 45.298742,64.9804878 45.9978537,64.9804878 L45.9978537,64.9804878 L161.626146,64.9804878 C162.325258,64.9804878 162.892,64.4137458 162.892,63.7146341 C162.892,63.0155225 162.325258,62.4487805 161.626146,62.4487805 L161.626146,62.4487805 Z M161.626146,41.3512195 L45.9978537,41.3512195 C45.298742,41.3512195 44.732,41.9179615 44.732,42.6170732 C44.732,43.3161848 45.298742,43.8829268 45.9978537,43.8829268 L45.9978537,43.8829268 L161.626146,43.8829268 C162.325258,43.8829268 162.892,43.3161848 162.892,42.6170732 C162.892,41.9179615 162.325258,41.3512195 161.626146,41.3512195 L161.626146,41.3512195 Z M161.626146,21.097561 L45.9978537,21.097561 C45.298742,21.097561 44.732,21.664303 44.732,22.3634146 C44.732,23.0625263 45.298742,23.6292683 45.9978537,23.6292683 L45.9978537,23.6292683 L161.626146,23.6292683 C162.325258,23.6292683 162.892,23.0625263 162.892,22.3634146 C162.892,21.664303 162.325258,21.097561 161.626146,21.097561 L161.626146,21.097561 Z" id="Combined-Shape"></path>
                            <path d="M211,118.990244 C211,125.939837 211,132.889431 211,139.839024 C211,143.705018 207.865993,146.839024 204,146.839024 L7,146.839024 C3.13400675,146.839024 1.36162605e-15,143.705018 0,139.839024 L0,118.990244 L0,118.990244 L211,118.990244 Z" id="Rectangle"></path>
                            <path d="M43.044,148.526829 C43.044,155.35122 43.044,162.17561 43.044,169 C43.044,171.209139 41.253139,173 39.044,173 L16.66,173 C14.450861,173 12.66,171.209139 12.66,169 L12.66,148.526829 L12.66,148.526829 L43.044,148.526829 Z" id="Rectangle"></path>
                            <path d="M198.34,148.526829 C198.34,155.35122 198.34,162.17561 198.34,169 C198.34,171.209139 196.549139,173 194.34,173 L171.956,173 C169.746861,173 167.956,171.209139 167.956,169 L167.956,148.526829 L167.956,148.526829 L198.34,148.526829 Z" id="Rectangle"></path>
                            <path d="M13.926,37.9756098 C21.6171174,37.9756098 27.852,44.2104923 27.852,51.9016098 L27.852,117.302439 L27.852,117.302439 L0,117.302439 L0,51.9016098 C-9.41890234e-16,44.2104923 6.23488257,37.9756098 13.926,37.9756098 Z" id="Rectangle"></path>
                            <path d="M197.074,37.9756098 C204.765117,37.9756098 211,44.2104923 211,51.9016098 L211,117.302439 L211,117.302439 L183.148,117.302439 L183.148,51.9016098 C183.148,44.2104923 189.382883,37.9756098 197.074,37.9756098 Z" id="Rectangle"></path>
                        </g>
                    </g>
                    <g id="Bricks" transform="translate(249.000000, 418.000000)" fill="#8C4D36">
                        <g id="Group">
                            <rect id="Rectangle" x="0" y="113.80814" width="86.6754717" height="31.1918605" rx="3"></rect>
                            <rect id="Rectangle" x="136.324528" y="113.80814" width="86.6754717" height="31.1918605" rx="3"></rect>
                            <rect id="Rectangle" x="79.1018868" y="80.9302326" width="86.6754717" height="31.1918605" rx="3"></rect>
                            <rect id="Rectangle" x="103.50566" y="48.0523256" width="86.6754717" height="31.1918605" rx="3"></rect>
                            <path d="M33.2961183,24.4676919 L113.982036,24.431409 C115.638888,24.4279692 116.982638,25.7705108 116.983383,27.4273649 C116.983383,27.4282636 116.983383,27.4291622 116.980688,27.4300597 L116.969379,52.6181687 C116.965939,54.2739688 115.623833,55.6160757 113.968033,55.6195174 L33.2821154,55.6558003 C31.6252626,55.6592401 30.281513,54.3166985 30.2807679,52.6598444 C30.2807675,52.6589457 30.2807675,52.6580471 30.2834627,52.6571496 L30.2947717,27.4690406 C30.2982123,25.8132405 31.6403182,24.4711336 33.2961183,24.4676919 Z" id="Rectangle" transform="translate(73.632075, 40.043605) rotate(-15.000000) translate(-73.632075, -40.043605) "></path>
                            <rect id="Rectangle" x="132.116981" y="0" width="31.1358491" height="46.3662791" rx="3"></rect>
                            <path d="M178.005957,73.3846534 L203.197817,73.3846534 C204.854671,73.3846534 206.197817,74.7277991 206.197817,76.3846534 L206.197817,116.667672 C206.197817,118.324526 204.854671,119.667672 203.197817,119.667672 L178.005957,119.667672 C176.349102,119.667672 175.005957,118.324526 175.005957,116.667672 L175.005957,76.3846534 C175.005957,74.7277991 176.349102,73.3846534 178.005957,73.3846534 Z" id="Rectangle" transform="translate(190.601887, 96.526163) rotate(-270.000000) translate(-190.601887, -96.526163) "></path>
                            <path d="M98.9040698,106.26256 L124.09593,106.26256 C125.752784,106.26256 127.09593,107.605706 127.09593,109.26256 L127.09593,149.545579 C127.09593,151.202433 125.752784,152.545579 124.09593,152.545579 L98.9040698,152.545579 C97.2472155,152.545579 95.9040698,151.202433 95.9040698,149.545579 L95.9040698,109.26256 C95.9040698,107.605706 97.2472155,106.26256 98.9040698,106.26256 Z" id="Rectangle" transform="translate(111.500000, 129.404070) rotate(-270.000000) translate(-111.500000, -129.404070) "></path>
                            <path d="M45.8952575,64.0713001 L71.0468295,64.0916233 C72.7017909,64.0929605 74.0430682,65.4342387 74.0444044,67.0892001 L74.0769769,107.432093 C74.0783147,109.088946 72.7362538,110.433176 71.0794001,110.434514 C71.0777847,110.434515 71.0761693,110.434515 71.0745538,110.434514 L45.9229818,110.414191 C44.2680204,110.412853 42.9267431,109.071575 42.9254069,107.416614 L42.8928344,67.0737213 C42.8914966,65.4168676 44.2335575,64.0726378 45.8904112,64.0713001 C45.8920266,64.0712988 45.8936421,64.0712988 45.8952575,64.0713001 Z" id="Rectangle" transform="translate(58.484906, 87.252907) rotate(-328.000000) translate(-58.484906, -87.252907) "></path>
                        </g>
                    </g>
                    <g id="Stool" transform="translate(369.500000, 329.500000) rotate(24.000000) translate(-369.500000, -329.500000) translate(315.000000, 246.000000)" fill="#767376">
                        <g id="Group">
                            <rect id="Rectangle" x="41.1777778" y="33.2378641" width="26.6444444" height="24.3203883"></rect>
                            <rect id="Rectangle" x="46.8296296" y="59.1796117" width="15.3407407" height="38.9126214"></rect>
                            <rect id="Rectangle" x="49.2518519" y="99.7135922" width="10.4962963" height="43.776699"></rect>
                            <path d="M54.0962963,145.11165 C69.0602466,145.11165 84.1318515,150.786408 99.3111111,162.135922 L9.68888889,162.135922 C24.3298769,150.786408 39.132346,145.11165 54.0962963,145.11165 Z" id="Rectangle"></path>
                            <rect id="Rectangle" x="5.65185185" y="163.757282" width="96.8888889" height="3.24271845" rx="1.62135922"></rect>
                            <path d="M108.119,14.592 L109,17.8349515 L0,17.8349515 L0,17.8349515 L0.88,14.592 L108.119,14.592 Z M95.7448723,0 C100.709522,-1.32836948e-14 105.058859,3.32553589 106.360235,8.11658674 L107.679,12.97 L1.321,12.97 L2.63976485,8.11658674 C3.94114096,3.32553589 8.29047784,2.68834822e-15 13.2551277,0 L95.7448723,0 Z" id="Combined-Shape"></path>
                            <path d="M4.84444444,19.4563107 L104.962963,19.4563107 C95.7016491,21.2823665 88.9682603,22.8894755 84.7627966,24.2776377 C80.5573329,25.6657998 75.010875,28.1120889 68.123423,31.6165049 L40.7425347,31.6165049 C33.5942044,28.1306468 27.9857191,25.698608 23.917079,24.3203883 C19.8484389,22.9421687 13.490894,21.3208095 4.84444444,19.4563107 Z" id="Rectangle"></path>
                        </g>
                    </g>
                </g>
            </g>
        </g>
    </g>
</svg>