<?xml version="1.0" encoding="UTF-8"?>
<svg width="165px" height="165px" viewBox="0 0 165 165" version="1.1" xmlns="http://www.w3.org/2000/svg" xmlns:xlink="http://www.w3.org/1999/xlink">
    <!-- Generator: Sketch 63.1 (92452) - https://sketch.com -->
    <title>Bricks</title>
    <desc>Created with Sketch.</desc>
    <defs>
        <circle id="path-1" cx="82.5" cy="82.5" r="82.5"></circle>
    </defs>
    <g id="Page-1" stroke="none" stroke-width="1" fill="none" fill-rule="evenodd">
        <g id="Home/New" transform="translate(-255.000000, -3472.000000)">
            <g id="Bricks" transform="translate(255.000000, 3472.000000)">
                <mask id="mask-2" fill="white">
                    <use xlink:href="#path-1"></use>
                </mask>
                <use id="Mask" fill="#69AFE3" xlink:href="#path-1"></use>
                <g opacity="0.2" mask="url(#mask-2)" id="Group">
                    <g transform="translate(-16.000000, 67.000000)">
                        <g>
                            <rect id="Rectangle" fill="#FFFFFF" x="0" y="78.4883721" width="59.8566038" height="21.5116279" rx="3"></rect>
                            <rect id="Rectangle" fill="#FFFFFF" x="94.1433962" y="78.4883721" width="59.8566038" height="21.5116279" rx="3"></rect>
                            <rect id="Rectangle" fill="#FFFFFF" x="54.6264151" y="55.8139535" width="59.8566038" height="21.5116279" rx="3"></rect>
                            <rect id="Rectangle" fill="#FFFFFF" x="71.4792453" y="33.1395349" width="59.8566038" height="21.5116279" rx="3"></rect>
                            <path d="M23.9210641,16.8638413 L77.7794844,16.8577415 C79.4363386,16.8568745 80.7796364,18.1998682 80.7798241,19.8567224 C80.7798241,19.8569489 80.7798241,19.8571753 80.7791447,19.8574017 L80.7773887,35.3683771 C80.7765217,37.024966 79.433638,38.3678498 77.7770491,38.3687169 L23.9186288,38.3748166 C22.2617746,38.3756836 20.9184768,37.03269 20.9182891,35.3758357 C20.9182891,35.3756093 20.9182891,35.3753828 20.9189685,35.3751564 L20.9207245,19.864181 C20.9215915,18.2075922 22.2644752,16.8647084 23.9210641,16.8638413 Z" id="Rectangle" fill="#FFFFFF" transform="translate(50.849057, 27.616279) rotate(-15.000000) translate(-50.849057, -27.616279) "></path>
                            <rect id="Rectangle" fill="#FFFFFF" x="91.2377358" y="0" width="21.5018868" height="31.9767442" rx="3"></rect>
                            <path d="M123.870601,50.5886354 L139.382229,50.5886354 C141.039083,50.5886354 142.382229,51.9317811 142.382229,53.5886354 L142.382229,79.5508995 C142.382229,81.2077538 141.039083,82.5508995 139.382229,82.5508995 L123.870601,82.5508995 C122.213747,82.5508995 120.870601,81.2077538 120.870601,79.5508995 L120.870601,53.5886354 C120.870601,51.9317811 122.213747,50.5886354 123.870601,50.5886354 Z" id="Rectangle" fill="#FFFFFF" transform="translate(131.626415, 66.569767) rotate(-270.000000) translate(-131.626415, -66.569767) "></path>
                            <path d="M69.244186,73.263054 L84.755814,73.263054 C86.4126682,73.263054 87.755814,74.6061997 87.755814,76.263054 L87.755814,102.225318 C87.755814,103.882172 86.4126682,105.225318 84.755814,105.225318 L69.244186,105.225318 C67.5873318,105.225318 66.244186,103.882172 66.244186,102.225318 L66.244186,76.263054 C66.244186,74.6061997 67.5873318,73.263054 69.244186,73.263054 Z" id="Rectangle" fill="#FFFFFF" transform="translate(77.000000, 89.244186) rotate(-270.000000) translate(-77.000000, -89.244186) "></path>
                            <path d="M32.6331144,44.1865015 L48.1377368,44.1896577 C49.7941138,44.1912164 51.1367887,45.5338913 51.1383473,47.1902684 L51.1436334,73.1629465 C51.1451917,74.8198004 49.8023193,76.1632195 48.1454651,76.1635567 C48.145058,76.1635568 48.1446509,76.1635568 48.1442441,76.1623357 L32.6396217,76.1591795 C30.9832447,76.1576208 29.6405698,74.8149459 29.6390112,73.1585688 L29.6337251,47.1858907 C29.6321668,45.5290368 30.9750392,44.1856177 32.6318934,44.1852805 C32.6323005,44.1852804 32.6327076,44.1852804 32.6331144,44.1865015 Z" id="Rectangle" fill="#FFFFFF" transform="translate(40.388679, 60.174419) rotate(-328.000000) translate(-40.388679, -60.174419) "></path>
                        </g>
                    </g>
                </g>
            </g>
        </g>
    </g>
</svg>